<svg width="325" height="90" viewBox="0 0 325 90" fill="none" xmlns="http://www.w3.org/2000/svg">
<path d="M28.9986 77.5407H23.2382V58.1571C23.2382 56.2467 22.8636 54.4533 22.1143 52.7773C21.3649 51.1012 20.3346 49.6413 19.0233 48.3976C17.7308 47.1361 16.204 46.1448 14.4431 45.4239C12.7009 44.6849 10.837 44.3155 8.85132 44.3155H5.76038V77.5407H0V38.7734H8.85132C10.6872 38.7734 12.448 39.0078 14.134 39.4763C15.8387 39.9269 17.4311 40.5668 18.9109 41.3957C20.3909 42.2248 21.7397 43.216 22.9572 44.3696C24.1749 45.523 25.2332 46.8027 26.1324 48.2084C27.0129 46.8027 28.062 45.523 29.2796 44.3696C30.4973 43.216 31.846 42.2248 33.3259 41.3957C34.8059 40.5668 36.3887 39.9269 38.0747 39.4763C39.7794 39.0078 41.5497 38.7734 43.3855 38.7734H52.265V77.5407H46.5046V44.3155H43.3855C41.3998 44.3155 39.5359 44.6849 37.7937 45.4239C36.0516 46.1448 34.5249 47.1361 33.2135 48.3976C31.921 49.6413 30.8906 51.1012 30.1226 52.7773C29.3732 54.4533 28.9986 56.2467 28.9986 58.1571V77.5407Z" fill="#3B47B3"/>
<path d="M98.0107 78.9194C98.0107 80.2712 97.7484 81.5327 97.2238 82.7043C96.6993 83.8757 95.9781 84.903 95.0602 85.7862C94.161 86.6693 93.0932 87.3632 91.8568 87.8679C90.6392 88.3724 89.3372 88.6247 87.9511 88.6247H64.9376V83.0827H87.9511C88.5317 83.0827 89.0843 82.9746 89.6089 82.7584C90.1334 82.542 90.5923 82.2447 90.9858 81.8661C91.3792 81.4877 91.6882 81.0462 91.9131 80.5415C92.1378 80.0368 92.2503 79.4962 92.2503 78.9194V77.5406H76.4303C74.2573 77.5406 72.2154 77.1442 70.3046 76.3511C68.3938 75.5401 66.7266 74.4497 65.3029 73.08C63.8979 71.6923 62.7833 70.0792 61.9591 68.2409C61.1348 66.3844 60.7227 64.4109 60.7227 62.3203V47.0999H66.483V62.3203C66.483 63.6541 66.736 64.9066 67.2418 66.0781C67.7662 67.2316 68.4781 68.2499 69.3773 69.133C70.2764 69.9981 71.3255 70.692 72.5244 71.2146C73.7421 71.7193 75.044 71.9806 76.4303 71.9986H92.2503V47.0999H98.0107V78.9194Z" fill="#EDDD51" fill-opacity="0.85"/>
<path d="M94.0629 3.55029C94.0629 1.58952 92.4108 0 90.3728 0C88.3348 0 86.6826 1.58952 86.6826 3.55029V24.3851C86.6826 26.3459 88.3348 27.9354 90.3728 27.9354C92.4108 27.9354 94.0629 26.3459 94.0629 24.3851V3.55029Z" fill="#3B47B3"/>
<path d="M144.463 13.3603H108.61C107.913 13.3603 107.348 13.9041 107.348 14.5749C107.348 15.2457 107.913 15.7894 108.61 15.7894H144.463C145.16 15.7894 145.725 15.2457 145.725 14.5749C145.725 13.9041 145.16 13.3603 144.463 13.3603Z" fill="#3B47B3"/>
<path d="M102.919 6.48372C102.919 4.91511 101.598 3.64349 99.9673 3.64349C98.3368 3.64349 97.0151 4.91511 97.0151 6.48372V22.6658C97.0151 24.2344 98.3368 25.506 99.9673 25.506C101.598 25.506 102.919 24.2344 102.919 22.6658V6.48372Z" fill="#3B47B3"/>
<path d="M154.581 6.48372C154.581 4.91511 153.26 3.64349 151.629 3.64349C149.999 3.64349 148.677 4.91511 148.677 6.48372V22.6658C148.677 24.2344 149.999 25.506 151.629 25.506C153.26 25.506 154.581 24.2344 154.581 22.6658V6.48372Z" fill="#3B47B3"/>
<path d="M164.914 3.55029C164.914 1.58952 163.261 0 161.223 0C159.185 0 157.533 1.58952 157.533 3.55029V24.3851C157.533 26.3459 159.185 27.9354 161.223 27.9354C163.261 27.9354 164.914 26.3459 164.914 24.3851V3.55029Z" fill="#3B47B3"/>
<path d="M126.537 31.5793C131.428 31.5793 135.393 28.3166 135.393 24.2918C135.393 20.2671 131.428 17.0043 126.537 17.0043C121.645 17.0043 117.68 20.2671 117.68 24.2918C117.68 28.3166 121.645 31.5793 126.537 31.5793Z" fill="#3B47B3"/>
<path d="M111.779 18.2184C111.668 27.2996 114.105 30.9891 122.643 35.2226M141.267 18.2184C141.595 26.98 139.269 30.5892 131.644 35.2226" stroke="#3B47B3" stroke-width="4"/>
<path d="M126.557 58.2584L130.637 81.2359M126.557 32.1878V58.2584V32.1878ZM126.557 58.2584L122.671 81.2359L126.557 58.2584Z" stroke="#3B47B3" stroke-width="4"/>
<path d="M181.299 53.1786H159.718C159.119 53.1786 158.557 53.2958 158.032 53.53C157.509 53.7464 157.05 54.0437 156.656 54.4223C156.263 54.8007 155.953 55.2422 155.729 55.7469C155.503 56.2516 155.391 56.7832 155.391 57.3419V78.1043H149.63V57.3419C149.63 55.9902 149.894 54.7286 150.417 53.5572C150.942 52.3856 151.663 51.3673 152.581 50.5022C153.499 49.6191 154.567 48.9252 155.785 48.4205C157.002 47.916 158.313 47.6637 159.718 47.6637H181.299V53.1786ZM221.031 78.1043H192.257C190.853 78.1043 189.541 77.8521 188.324 77.3474C187.105 76.8428 186.038 76.1579 185.12 75.2928C184.202 74.4097 183.481 73.3824 182.956 72.2108C182.433 71.0214 182.169 69.7597 182.169 68.4261C182.169 67.0743 182.433 65.8127 182.956 64.6412C183.481 63.4697 184.202 62.4424 185.12 61.5593C186.038 60.6762 187.105 59.9823 188.324 59.4776C189.541 58.973 190.853 58.7206 192.257 58.7206H212.377V64.2627H192.257C191.657 64.2627 191.096 64.3799 190.571 64.6142C190.048 64.8305 189.589 65.1278 189.194 65.5063C188.802 65.8848 188.492 66.3263 188.268 66.831C188.042 67.3356 187.93 67.8673 187.93 68.4261C187.93 69.0027 188.042 69.5435 188.268 70.048C188.492 70.5347 188.802 70.9673 189.194 71.3457C189.589 71.7243 190.048 72.0216 190.571 72.2379C191.096 72.4541 191.657 72.5622 192.257 72.5622H215.271V57.3419C215.271 56.7832 215.15 56.2516 214.905 55.7469C214.681 55.2422 214.372 54.8007 213.979 54.4223C213.585 54.0437 213.126 53.7464 212.602 53.53C212.077 53.2958 211.524 53.1786 210.943 53.1786H187.93V47.6637H210.943C212.349 47.6637 213.659 47.916 214.878 48.4205C216.095 48.9252 217.163 49.6191 218.08 50.5022C218.998 51.3673 219.721 52.3856 220.244 53.5572C220.769 54.7286 221.031 55.9902 221.031 57.3419V78.1043ZM236.29 40.7429C236.29 41.3195 236.178 41.8603 235.952 42.3648C235.727 42.8515 235.418 43.2841 235.025 43.6625C234.631 44.0411 234.172 44.3384 233.649 44.5547C233.123 44.7709 232.571 44.879 231.99 44.879C231.391 44.879 230.829 44.7709 230.304 44.5547C229.78 44.3384 229.321 44.0411 228.927 43.6625C228.534 43.2841 228.225 42.8515 228 42.3648C227.776 41.8603 227.664 41.3195 227.664 40.7429C227.664 40.1841 227.776 39.6524 228 39.1478C228.225 38.6431 228.534 38.2016 228.927 37.8231C229.321 37.4446 229.78 37.1472 230.304 36.931C230.829 36.6967 231.391 36.5795 231.99 36.5795C232.571 36.5795 233.123 36.6967 233.649 36.931C234.172 37.1472 234.631 37.4446 235.025 37.8231C235.418 38.2016 235.727 38.6431 235.952 39.1478C236.178 39.6524 236.29 40.1841 236.29 40.7429ZM234.857 78.1043H229.097V47.6637H234.857V78.1043ZM248.906 78.1043H243.145V47.6637H264.726C266.9 47.6637 268.941 48.0691 270.852 48.8802C272.762 49.6732 274.43 50.7635 275.854 52.1513C277.277 53.521 278.4 55.1341 279.225 56.9904C280.049 58.8289 280.462 60.7933 280.462 62.884V78.1043H274.702V62.884C274.702 61.5503 274.44 60.2977 273.915 59.1262C273.39 57.9548 272.679 56.9365 271.78 56.0714C270.88 55.1883 269.822 54.4944 268.604 53.9897C267.405 53.4671 266.113 53.1967 264.726 53.1786H248.906V78.1043Z" fill="#3B47B3"/>
<path d="M325 79.4831C325 80.8348 324.737 82.0965 324.213 83.2679C323.688 84.4394 322.968 85.4668 322.05 86.3499C321.15 87.233 320.083 87.9268 318.846 88.4315C317.629 88.9362 316.327 89.1885 314.941 89.1885H291.928V83.6465H314.941C315.521 83.6465 316.073 83.5382 316.598 83.322C317.124 83.1057 317.583 82.8084 317.975 82.4298C318.368 82.0514 318.677 81.6098 318.903 81.1051C319.128 80.6005 319.24 80.0598 319.24 79.4831V78.1043H303.42C301.246 78.1043 299.205 77.7079 297.294 76.9149C295.384 76.1038 293.716 75.0135 292.292 73.6437C290.888 72.2559 289.773 70.6428 288.948 68.8045C288.124 66.9482 287.712 64.9747 287.712 62.8841V47.6637H293.473V62.8841C293.473 64.2177 293.726 65.4702 294.231 66.6418C294.756 67.7952 295.467 68.8135 296.366 69.6966C297.265 70.5617 298.316 71.2556 299.514 71.7783C300.731 72.2829 302.033 72.5443 303.42 72.5623H319.24V47.6637H325V79.4831Z" fill="#D52D2D"/>
</svg>
